<?xml version="1.0" standalone="no"?><!DOCTYPE svg PUBLIC "-//W3C//DTD SVG 1.1//EN" "http://www.w3.org/Graphics/SVG/1.1/DTD/svg11.dtd"><svg class="icon" height="512" viewBox="0 0 1024 1024" version="1.1" xmlns="http://www.w3.org/2000/svg"><path d="M357.555743 965.182148h0.347813l17.042856-84.518653h23.999124L372.859532 994.746286h-29.911951l-26.086004-114.082791H341.556327l15.999416 84.518653zM422.596846 962.051827c0 2.434694 0.347813 4.869387 0.695627 7.304081 0.347813 2.08688 1.04344 4.521574 1.739067 6.260641s2.08688 3.13032 3.478134 4.521574c1.391254 1.04344 3.13032 1.739067 5.217201 1.739067 3.13032 0.347813 6.260641-1.391254 7.999707-3.825947 2.08688-3.825947 3.13032-7.999708 3.478134-12.173468h19.825363c-0.347813 10.086588-3.13032 17.738483-7.999708 22.955683s-12.521282 7.999708-23.303496 7.651895c-6.608454 0.347813-12.869095-1.04344-18.781923-3.825948-4.173761-2.434694-7.651895-5.912828-9.738775-10.434401-2.08688-4.521574-3.478134-9.738775-3.825947-14.608163-0.347813-5.565014-0.695627-10.782215-0.695627-16.347229s0.347813-11.130028 1.04344-16.695042c0.695627-4.869387 2.434694-9.738775 4.869387-14.260349 2.434694-4.173761 6.260641-7.651895 10.434402-10.086588 5.565014-2.782507 11.825655-3.825947 18.086296-3.825948 5.565014-0.347813 10.782215 1.04344 15.651603 3.130321 3.825947 2.08688 7.304081 4.869387 9.738774 8.695335 2.434694 4.173761 4.173761 9.043148 4.869388 13.912535 1.04344 5.912828 1.391254 11.825655 1.391253 18.086296v4.869388H422.596846v6.956267z m22.260057-28.868511c-0.347813-2.08688-0.695627-4.521574-1.739067-6.260641-0.695627-1.739067-2.08688-3.13032-3.478134-3.825947-1.739067-1.04344-3.478134-1.391254-5.565014-1.391254-2.08688 0-3.825947 0.347813-5.565014 1.391254-1.391254 1.04344-2.782507 2.434694-3.478134 3.825947-1.04344 1.739067-1.391254 3.478134-1.739067 5.565014-0.347813 2.08688-0.695627 4.173761-0.695627 6.260641v3.478134h22.60787c0-3.478134-0.347813-6.260641-0.347813-9.043148zM542.592465 990.572525c0 11.130028-2.782507 19.47755-8.347522 25.042564-5.565014 5.565014-14.608162 8.347521-27.477257 8.347521-7.651895 0.347813-15.303789-1.739067-21.56443-5.912828-5.217201-4.173761-7.999708-10.434402-7.651895-17.042855h21.216617c0 2.782507 1.391254 5.217201 3.478134 6.608454 1.04344 0.695627 2.08688 1.391254 3.478134 1.739067 1.391254 0.347813 2.434694 0.695627 3.825947 0.695627 3.825947 0.347813 7.304081-1.391254 9.390961-4.173761 1.739067-3.13032 2.782507-6.956268 2.782507-10.782215v-11.477842h-0.347813c-2.08688 3.13032-4.869387 5.912828-8.347521 7.651895-3.13032 1.739067-6.608454 2.782507-10.086589 2.782507-7.999708 0.347813-15.303789-3.478134-19.825363-10.086588-4.521574-6.608454-6.608454-17.738483-6.608454-33.390086 0-5.217201 0.347813-10.434402 0.695627-15.303789 0.347813-4.869387 1.739067-9.738775 3.825947-14.260348 1.739067-4.173761 4.521574-7.651895 7.999708-10.434402 4.173761-2.782507 9.390961-4.173761 14.260349-3.825947 3.478134 0 6.608454 1.04344 9.738775 2.434693 3.825947 2.08688 6.608454 5.217201 8.347521 9.390962h0.347813v-9.738775h21.216617l-0.347813 81.736146z m-43.824487-27.477258c0.347813 2.434694 0.695627 4.869387 1.739067 6.956268 0.695627 2.08688 1.739067 3.478134 3.478134 4.869388 1.739067 1.391254 3.478134 2.08688 5.565014 1.739066 2.08688 0 4.173761-0.695627 5.912827-1.739066 1.739067-1.391254 2.782507-3.13032 3.825948-5.217201 1.04344-2.434694 1.739067-5.217201 2.08688-7.651895 0.347813-3.478134 0.695627-6.608454 0.695627-10.086588 0.347813-7.651895-0.347813-14.955976-2.434694-22.260057-1.04344-4.173761-4.869387-6.608454-9.043148-6.608454-2.08688 0-4.173761 0.347813-5.912828 1.739067s-2.782507 3.13032-3.478133 5.217201c-1.04344 3.13032-1.391254 6.260641-1.739067 9.738775-0.347813 3.825947-0.347813 8.695335-0.347814 14.608162-0.695627 2.782507-0.695627 5.912828-0.347813 8.695334zM557.896254 932.835503c0-4.173761 0.695627-8.695335 2.434693-12.521282 1.391254-3.13032 3.825947-5.912828 6.608455-8.347521 2.782507-2.08688 6.260641-3.825947 9.738774-4.521574 3.825947-1.04344 7.651895-1.391254 11.825656-1.391254 5.565014 0 10.782215 0.347813 15.999415 1.739067 3.478134 1.04344 6.956268 2.782507 9.390962 5.565014 2.08688 2.434694 3.825947 5.217201 4.521574 8.347521 0.695627 3.478134 1.391254 6.956268 1.04344 10.782215v45.215741c0 3.13032 0 6.260641 0.695627 9.390961 0.347813 2.434694 1.04344 4.869387 2.08688 7.304081h-21.216616c-0.695627-1.391254-1.391254-2.782507-1.739067-4.521574-0.347813-1.391254-0.695627-3.13032-1.043441-4.521574h-0.347813c-1.739067 3.825947-4.869387 6.956268-9.043148 8.695335-4.173761 1.391254-8.695335 2.08688-13.216909 2.08688-3.478134 0-6.608454-0.695627-9.738775-2.08688-2.434694-1.391254-4.869387-3.13032-6.260641-5.565014-1.739067-2.434694-2.782507-5.217201-3.478133-7.999708-0.695627-2.782507-1.04344-5.912828-1.043441-8.695335 0-3.478134 0.347813-6.956268 1.391254-10.434402 0.695627-2.782507 2.08688-5.217201 3.825947-7.651894 1.739067-2.08688 4.173761-3.825947 6.608455-5.217201 3.13032-1.391254 6.608454-2.782507 9.738774-3.825947l12.521282-3.478134c2.782507-0.347813 4.869387-1.739067 6.956268-3.478134 1.391254-1.739067 2.08688-4.173761 2.08688-6.608454 0-2.782507-0.695627-5.565014-2.434693-7.651895-2.08688-2.08688-4.869387-3.13032-7.999708-2.782507-2.782507-0.347813-5.565014 1.04344-7.651895 3.130321-1.739067 2.434694-2.782507 5.217201-2.434693 8.347521v2.434694h-19.825363v-1.739067z m35.476965 21.56443c-1.391254 0.695627-3.13032 1.04344-4.521574 1.391253-3.478134 0.347813-6.956268 2.08688-9.738775 4.869388-2.08688 2.434694-3.13032 5.912828-2.782507 9.043148 0 2.782507 0.695627 5.912828 2.08688 8.347521 1.391254 2.434694 3.825947 3.825947 6.260641 3.478134 1.739067 0 3.13032-0.347813 4.521574-0.695627 1.739067-0.347813 3.13032-1.391254 4.521574-2.434694 1.391254-1.04344 2.434694-2.434694 3.130321-4.17376 1.04344-1.739067 1.391254-3.825947 1.391253-6.260641v-17.042856c-1.739067 1.739067-3.13032 2.782507-4.869387 3.478134zM655.979629 908.488566v10.086588h0.347813c2.08688-3.825947 5.217201-7.304081 9.043148-9.390962 3.825947-2.08688 8.347521-3.13032 12.869095-3.13032 5.912828-0.347813 11.825655 1.739067 16.347229 5.912828 3.825947 3.825947 5.565014 10.086588 5.565015 18.781922V994.746286h-22.260057v-59.128276c0.347813-3.13032-0.347813-6.608454-2.08688-9.390962-1.739067-2.08688-4.521574-2.782507-7.304082-2.782507-7.651895 0-11.825655 4.869387-11.825655 14.260349V994.746286h-22.260056v-86.25772h21.56443zM511.984887 827.79586C283.819305 827.79586 98.086957 642.063512 98.086957 413.89793S283.819305 0 511.984887 0s413.89793 185.732348 413.89793 413.89793-185.732348 413.89793-413.89793 413.89793z m0-775.623852C312.687816 52.172008 150.258965 214.60086 150.258965 413.89793s162.428852 361.725922 361.725922 361.725922 361.725922-162.428852 361.725922-361.725922S711.281957 52.172008 511.984887 52.172008z" fill="" /><path d="M510.941446 560.327366h2.086881l68.171423-339.813679h95.996495l-105.387456 459.461484H452.856611L347.121341 220.513687H445.900343l65.041103 339.813679z" fill="" /></svg>